<svg width="234" height="32" viewBox="0 0 234 32" fill="none" xmlns="http://www.w3.org/2000/svg">
<rect x="0.5" y="0.5" width="233" height="31" rx="1.5" stroke="#F2F2F2"/>
<path opacity="0.5" d="M21.952 12.08V20H21.04V15.02L21.148 12.932H21.136L18.532 20H17.716L15.112 12.932H15.1L15.208 15.02V20H14.296V12.08H15.772L17.512 16.892L18.112 18.872H18.136L18.748 16.904L20.476 12.08H21.952ZM27.7919 16.124C27.7919 15.676 27.6719 15.332 27.4319 15.092C27.1919 14.844 26.8519 14.72 26.4119 14.72C25.9959 14.72 25.6439 14.812 25.3559 14.996C25.0679 15.172 24.8559 15.46 24.7199 15.86L23.9399 15.38C24.0999 14.932 24.3959 14.572 24.8279 14.3C25.2599 14.02 25.7959 13.88 26.4359 13.88C26.8679 13.88 27.2599 13.956 27.6119 14.108C27.9639 14.252 28.2399 14.476 28.4399 14.78C28.6479 15.076 28.7519 15.46 28.7519 15.932V18.836C28.7519 19.124 28.9039 19.268 29.2079 19.268C29.3599 19.268 29.5079 19.248 29.6519 19.208L29.6039 19.964C29.4439 20.044 29.2359 20.084 28.9799 20.084C28.6839 20.084 28.4279 20.012 28.2119 19.868C28.0039 19.724 27.8679 19.504 27.8039 19.208C27.5959 19.52 27.3119 19.752 26.9519 19.904C26.5919 20.048 26.2359 20.12 25.8839 20.12C25.5319 20.12 25.2039 20.06 24.8999 19.94C24.5959 19.82 24.3519 19.64 24.1679 19.4C23.9919 19.152 23.9039 18.848 23.9039 18.488C23.9039 18.04 24.0519 17.672 24.3479 17.384C24.6519 17.088 25.0719 16.888 25.6079 16.784L27.7919 16.352V16.124ZM24.8879 18.44C24.8879 18.688 24.9839 18.892 25.1759 19.052C25.3759 19.204 25.6559 19.28 26.0159 19.28C26.3279 19.28 26.6159 19.228 26.8799 19.124C27.1519 19.012 27.3719 18.848 27.5399 18.632C27.7079 18.408 27.7919 18.124 27.7919 17.78V17.144L26.0519 17.504C25.6599 17.584 25.3679 17.696 25.1759 17.84C24.9839 17.984 24.8879 18.184 24.8879 18.44ZM33.2448 20.12C32.6608 20.12 32.1208 19.996 31.6248 19.748C31.1368 19.5 30.7608 19.148 30.4968 18.692L31.3128 18.104C31.4888 18.472 31.7448 18.76 32.0808 18.968C32.4248 19.176 32.8368 19.28 33.3168 19.28C33.7408 19.28 34.0728 19.2 34.3128 19.04C34.5528 18.872 34.6728 18.656 34.6728 18.392C34.6728 18.224 34.6168 18.072 34.5048 17.936C34.4008 17.792 34.1968 17.688 33.8928 17.624L32.4528 17.324C31.8688 17.204 31.4488 17.004 31.1928 16.724C30.9448 16.444 30.8208 16.096 30.8208 15.68C30.8208 15.352 30.9128 15.052 31.0968 14.78C31.2888 14.508 31.5568 14.292 31.9008 14.132C32.2528 13.964 32.6648 13.88 33.1367 13.88C33.7288 13.88 34.2288 13.996 34.6368 14.228C35.0448 14.46 35.3488 14.788 35.5488 15.212L34.7448 15.74C34.6088 15.388 34.3888 15.132 34.0848 14.972C33.7808 14.804 33.4648 14.72 33.1367 14.72C32.7048 14.72 32.3688 14.808 32.1288 14.984C31.8888 15.16 31.7688 15.38 31.7688 15.644C31.7688 15.82 31.8288 15.984 31.9488 16.136C32.0688 16.28 32.2928 16.384 32.6208 16.448L34.1208 16.76C34.6808 16.872 35.0728 17.056 35.2968 17.312C35.5208 17.568 35.6328 17.88 35.6328 18.248C35.6328 18.816 35.4128 19.272 34.9728 19.616C34.5328 19.952 33.9568 20.12 33.2448 20.12ZM39.5849 20.12C39.2009 20.12 38.8369 20.048 38.4929 19.904C38.1569 19.76 37.8809 19.528 37.6649 19.208C37.4569 18.88 37.3529 18.456 37.3529 17.936V14H38.3129V17.684C38.3129 18.292 38.4449 18.712 38.7089 18.944C38.9729 19.168 39.3449 19.28 39.8249 19.28C40.1289 19.28 40.4169 19.212 40.6889 19.076C40.9609 18.932 41.1849 18.712 41.3609 18.416C41.5369 18.12 41.6249 17.736 41.6249 17.264V14H42.5849V20H41.7449L41.6849 19.088C41.4769 19.448 41.1929 19.712 40.8329 19.88C40.4809 20.04 40.0649 20.12 39.5849 20.12ZM50.0871 14L47.7471 16.34L50.2311 20H49.0671L47.0511 17.036L45.7791 18.308V20H44.8191V11.24H45.7791V17.108L48.8751 14H50.0871ZM55.0145 16.124C55.0145 15.676 54.8945 15.332 54.6545 15.092C54.4145 14.844 54.0745 14.72 53.6345 14.72C53.2185 14.72 52.8665 14.812 52.5785 14.996C52.2905 15.172 52.0785 15.46 51.9425 15.86L51.1625 15.38C51.3225 14.932 51.6185 14.572 52.0505 14.3C52.4825 14.02 53.0185 13.88 53.6585 13.88C54.0905 13.88 54.4825 13.956 54.8345 14.108C55.1865 14.252 55.4625 14.476 55.6625 14.78C55.8705 15.076 55.9745 15.46 55.9745 15.932V18.836C55.9745 19.124 56.1265 19.268 56.4305 19.268C56.5825 19.268 56.7305 19.248 56.8745 19.208L56.8265 19.964C56.6665 20.044 56.4585 20.084 56.2025 20.084C55.9065 20.084 55.6505 20.012 55.4345 19.868C55.2265 19.724 55.0905 19.504 55.0265 19.208C54.8185 19.52 54.5345 19.752 54.1745 19.904C53.8145 20.048 53.4585 20.12 53.1065 20.12C52.7545 20.12 52.4265 20.06 52.1225 19.94C51.8185 19.82 51.5745 19.64 51.3905 19.4C51.2145 19.152 51.1265 18.848 51.1265 18.488C51.1265 18.04 51.2745 17.672 51.5705 17.384C51.8745 17.088 52.2945 16.888 52.8305 16.784L55.0145 16.352V16.124ZM52.1105 18.44C52.1105 18.688 52.2065 18.892 52.3985 19.052C52.5985 19.204 52.8785 19.28 53.2385 19.28C53.5505 19.28 53.8385 19.228 54.1025 19.124C54.3745 19.012 54.5945 18.848 54.7625 18.632C54.9305 18.408 55.0145 18.124 55.0145 17.78V17.144L53.2745 17.504C52.8825 17.584 52.5905 17.696 52.3985 17.84C52.2065 17.984 52.1105 18.184 52.1105 18.44ZM58.3074 20V14H59.1474L59.2074 14.936C59.4154 14.56 59.6994 14.292 60.0594 14.132C60.4194 13.964 60.8074 13.88 61.2234 13.88C61.6554 13.88 62.0474 13.964 62.3994 14.132C62.7514 14.292 63.0314 14.54 63.2394 14.876C63.4554 15.212 63.5634 15.64 63.5634 16.16V20H62.6034V16.496C62.6034 15.832 62.4594 15.372 62.1714 15.116C61.8914 14.852 61.5434 14.72 61.1274 14.72C60.8394 14.72 60.5514 14.788 60.2634 14.924C59.9754 15.06 59.7354 15.28 59.5434 15.584C59.3594 15.888 59.2674 16.296 59.2674 16.808V20H58.3074ZM68.5425 20L71.6265 12.08H72.7665L75.8385 20H74.8185L73.9785 17.804H70.3905L69.5505 20H68.5425ZM71.8185 14.06L70.7385 16.904H73.6305L72.5625 14.096L72.1905 12.992H72.1665L71.8185 14.06ZM78.1803 11.24V18.476C78.1803 18.78 78.2363 18.992 78.3483 19.112C78.4603 19.224 78.6403 19.28 78.8883 19.28C79.0483 19.28 79.1803 19.268 79.2843 19.244C79.3883 19.22 79.5283 19.176 79.7043 19.112L79.5483 19.952C79.2843 20.064 78.9883 20.12 78.6603 20.12C77.7003 20.12 77.2203 19.584 77.2203 18.512V11.24H78.1803ZM84.4403 16.124C84.4403 15.676 84.3203 15.332 84.0803 15.092C83.8403 14.844 83.5003 14.72 83.0603 14.72C82.6443 14.72 82.2923 14.812 82.0043 14.996C81.7163 15.172 81.5043 15.46 81.3683 15.86L80.5883 15.38C80.7483 14.932 81.0443 14.572 81.4763 14.3C81.9083 14.02 82.4443 13.88 83.0843 13.88C83.5163 13.88 83.9083 13.956 84.2603 14.108C84.6123 14.252 84.8883 14.476 85.0883 14.78C85.2963 15.076 85.4003 15.46 85.4003 15.932V18.836C85.4003 19.124 85.5523 19.268 85.8563 19.268C86.0083 19.268 86.1563 19.248 86.3003 19.208L86.2523 19.964C86.0923 20.044 85.8843 20.084 85.6283 20.084C85.3323 20.084 85.0763 20.012 84.8603 19.868C84.6523 19.724 84.5163 19.504 84.4523 19.208C84.2443 19.52 83.9603 19.752 83.6003 19.904C83.2403 20.048 82.8843 20.12 82.5323 20.12C82.1803 20.12 81.8523 20.06 81.5483 19.94C81.2443 19.82 81.0003 19.64 80.8163 19.4C80.6403 19.152 80.5523 18.848 80.5523 18.488C80.5523 18.04 80.7003 17.672 80.9963 17.384C81.3003 17.088 81.7203 16.888 82.2563 16.784L84.4403 16.352V16.124ZM81.5363 18.44C81.5363 18.688 81.6323 18.892 81.8243 19.052C82.0243 19.204 82.3043 19.28 82.6643 19.28C82.9763 19.28 83.2643 19.228 83.5283 19.124C83.8003 19.012 84.0203 18.848 84.1883 18.632C84.3563 18.408 84.4403 18.124 84.4403 17.78V17.144L82.7003 17.504C82.3083 17.584 82.0163 17.696 81.8243 17.84C81.6323 17.984 81.5363 18.184 81.5363 18.44ZM87.7332 20V14H88.5732L88.6332 14.936C88.8492 14.568 89.1292 14.3 89.4732 14.132C89.8252 13.964 90.1852 13.88 90.5532 13.88C90.9772 13.88 91.3772 13.976 91.7532 14.168C92.1292 14.36 92.4172 14.656 92.6172 15.056C92.7452 14.784 92.9252 14.564 93.1572 14.396C93.3892 14.22 93.6412 14.092 93.9132 14.012C94.1932 13.924 94.4572 13.88 94.7052 13.88C95.0892 13.88 95.4532 13.96 95.7972 14.12C96.1492 14.28 96.4372 14.528 96.6612 14.864C96.8852 15.2 96.9972 15.632 96.9972 16.16V20H96.0372V16.256C96.0372 15.712 95.9012 15.32 95.6292 15.08C95.3572 14.84 95.0212 14.72 94.6212 14.72C94.3092 14.72 94.0172 14.796 93.7452 14.948C93.4732 15.1 93.2532 15.324 93.0852 15.62C92.9252 15.916 92.8452 16.28 92.8452 16.712V20H91.8852V16.256C91.8852 15.712 91.7492 15.32 91.4772 15.08C91.2052 14.84 90.8692 14.72 90.4692 14.72C90.2052 14.72 89.9332 14.792 89.6532 14.936C89.3812 15.072 89.1532 15.292 88.9692 15.596C88.7852 15.9 88.6932 16.3 88.6932 16.796V20H87.7332ZM102.675 16.124C102.675 15.676 102.555 15.332 102.315 15.092C102.075 14.844 101.735 14.72 101.295 14.72C100.879 14.72 100.527 14.812 100.239 14.996C99.9507 15.172 99.7387 15.46 99.6027 15.86L98.8227 15.38C98.9827 14.932 99.2787 14.572 99.7107 14.3C100.143 14.02 100.679 13.88 101.319 13.88C101.751 13.88 102.143 13.956 102.495 14.108C102.847 14.252 103.123 14.476 103.323 14.78C103.531 15.076 103.635 15.46 103.635 15.932V18.836C103.635 19.124 103.787 19.268 104.091 19.268C104.243 19.268 104.391 19.248 104.535 19.208L104.487 19.964C104.327 20.044 104.119 20.084 103.863 20.084C103.567 20.084 103.311 20.012 103.095 19.868C102.887 19.724 102.751 19.504 102.687 19.208C102.479 19.52 102.195 19.752 101.835 19.904C101.475 20.048 101.119 20.12 100.767 20.12C100.415 20.12 100.087 20.06 99.7827 19.94C99.4787 19.82 99.2347 19.64 99.0507 19.4C98.8747 19.152 98.7867 18.848 98.7867 18.488C98.7867 18.04 98.9347 17.672 99.2307 17.384C99.5347 17.088 99.9547 16.888 100.491 16.784L102.675 16.352V16.124ZM99.7707 18.44C99.7707 18.688 99.8667 18.892 100.059 19.052C100.259 19.204 100.539 19.28 100.899 19.28C101.211 19.28 101.499 19.228 101.763 19.124C102.035 19.012 102.255 18.848 102.423 18.632C102.591 18.408 102.675 18.124 102.675 17.78V17.144L100.935 17.504C100.543 17.584 100.251 17.696 100.059 17.84C99.8667 17.984 99.7707 18.184 99.7707 18.44ZM109.333 14V14.828H107.149V18.344C107.149 18.64 107.233 18.86 107.401 19.004C107.569 19.148 107.785 19.22 108.049 19.22C108.281 19.22 108.481 19.18 108.649 19.1C108.817 19.02 108.969 18.912 109.105 18.776L109.441 19.58C109.257 19.748 109.037 19.88 108.781 19.976C108.533 20.072 108.245 20.12 107.917 20.12C107.613 20.12 107.329 20.068 107.065 19.964C106.801 19.852 106.589 19.68 106.429 19.448C106.277 19.208 106.197 18.896 106.189 18.512V14.828H104.989V14H106.189V12.56L107.149 12.296V14H109.333ZM115.03 20V12.08H120.586V12.98H115.99V15.536H119.566V16.436H115.99V19.1H120.766V20H115.03ZM122.503 20V14H123.343L123.403 14.936C123.619 14.568 123.899 14.3 124.243 14.132C124.595 13.964 124.955 13.88 125.323 13.88C125.747 13.88 126.147 13.976 126.523 14.168C126.899 14.36 127.187 14.656 127.387 15.056C127.515 14.784 127.695 14.564 127.927 14.396C128.159 14.22 128.411 14.092 128.683 14.012C128.963 13.924 129.227 13.88 129.475 13.88C129.859 13.88 130.223 13.96 130.567 14.12C130.919 14.28 131.207 14.528 131.431 14.864C131.655 15.2 131.767 15.632 131.767 16.16V20H130.807V16.256C130.807 15.712 130.671 15.32 130.399 15.08C130.127 14.84 129.791 14.72 129.391 14.72C129.079 14.72 128.787 14.796 128.515 14.948C128.243 15.1 128.023 15.324 127.855 15.62C127.695 15.916 127.615 16.28 127.615 16.712V20H126.655V16.256C126.655 15.712 126.519 15.32 126.247 15.08C125.975 14.84 125.639 14.72 125.239 14.72C124.975 14.72 124.703 14.792 124.423 14.936C124.151 15.072 123.923 15.292 123.739 15.596C123.555 15.9 123.463 16.3 123.463 16.796V20H122.503ZM137.444 16.124C137.444 15.676 137.324 15.332 137.084 15.092C136.844 14.844 136.504 14.72 136.064 14.72C135.648 14.72 135.296 14.812 135.008 14.996C134.72 15.172 134.508 15.46 134.372 15.86L133.592 15.38C133.752 14.932 134.048 14.572 134.48 14.3C134.912 14.02 135.448 13.88 136.088 13.88C136.52 13.88 136.912 13.956 137.264 14.108C137.616 14.252 137.892 14.476 138.092 14.78C138.3 15.076 138.404 15.46 138.404 15.932V18.836C138.404 19.124 138.556 19.268 138.86 19.268C139.012 19.268 139.16 19.248 139.304 19.208L139.256 19.964C139.096 20.044 138.888 20.084 138.632 20.084C138.336 20.084 138.08 20.012 137.864 19.868C137.656 19.724 137.52 19.504 137.456 19.208C137.248 19.52 136.964 19.752 136.604 19.904C136.244 20.048 135.888 20.12 135.536 20.12C135.184 20.12 134.856 20.06 134.552 19.94C134.248 19.82 134.004 19.64 133.82 19.4C133.644 19.152 133.556 18.848 133.556 18.488C133.556 18.04 133.704 17.672 134 17.384C134.304 17.088 134.724 16.888 135.26 16.784L137.444 16.352V16.124ZM134.54 18.44C134.54 18.688 134.636 18.892 134.828 19.052C135.028 19.204 135.308 19.28 135.668 19.28C135.98 19.28 136.268 19.228 136.532 19.124C136.804 19.012 137.024 18.848 137.192 18.632C137.36 18.408 137.444 18.124 137.444 17.78V17.144L135.704 17.504C135.312 17.584 135.02 17.696 134.828 17.84C134.636 17.984 134.54 18.184 134.54 18.44ZM141.217 12.848C141.001 12.848 140.825 12.784 140.689 12.656C140.561 12.52 140.497 12.344 140.497 12.128C140.497 11.912 140.561 11.74 140.689 11.612C140.825 11.476 141.001 11.408 141.217 11.408C141.433 11.408 141.605 11.476 141.733 11.612C141.869 11.74 141.937 11.912 141.937 12.128C141.937 12.344 141.869 12.52 141.733 12.656C141.605 12.784 141.433 12.848 141.217 12.848ZM141.697 14V20H140.737V14H141.697ZM144.837 11.24V18.476C144.837 18.78 144.893 18.992 145.005 19.112C145.117 19.224 145.297 19.28 145.545 19.28C145.705 19.28 145.837 19.268 145.941 19.244C146.045 19.22 146.185 19.176 146.361 19.112L146.205 19.952C145.941 20.064 145.645 20.12 145.317 20.12C144.357 20.12 143.877 19.584 143.877 18.512V11.24H144.837Z" fill="black"/>
</svg>
